PathFileType	4	(X/Y/Z)	Patient4_TMGait_0pt8_01_right_24.trc.trc
DataRate	CameraRate	NumFrames	NumMarkers	Units	OrigDataRate	OrigDataStartFrame	OrigNumFrames
86.956521739130	86.956521739130	6	33	mm	86.956521739130	89	       141
Frame#	Time	Sacral			L.Shoulder			Chest			R.Shoulder			Neck			R.ASIS			L.ASIS			R.Thigh.Superior			R.Thigh.Lateral			R.Thigh.Inferior			R.Patella			L.Thigh.Superior			L.Thigh.Lateral			L.Thigh.Inferior			L.Patella			L.Shank.Superior			L.Shank.Lateral			L.Shank.Inferior			R.Shank.Superior			R.Shank.Lateral			R.Shank.Inferior			R.Heel			R.Midfoot.Superior			R.Midfoot.Lateral			R.Toe			L.Heel			L.Midfoot.Lateral			L.Midfoot.Superior			L.Toe			L.Elbow			L.Wrist			R.Elbow			R.Wrist			
		X1	Y1	Z1	X2	Y2	Z2	X3	Y3	Z3	X4	Y4	Z4	X5	Y5	Z5	X6	Y6	Z6	X7	Y7	Z7	X8	Y8	Z8	X9	Y9	Z9	X10	Y10	Z10	X11	Y11	Z11	X12	Y12	Z12	X13	Y13	Z13	X14	Y14	Z14	X15	Y15	Z15	X16	Y16	Z16	X17	Y17	Z17	X18	Y18	Z18	X19	Y19	Z19	X20	Y20	Z20	X21	Y21	Z21	X22	Y22	Z22	X23	Y23	Z23	X24	Y24	Z24	X25	Y25	Z25	X26	Y26	Z26	X27	Y27	Z27	X28	Y28	Z28	X29	Y29	Z29	X30	Y30	Z30	X31	Y31	Z31	X32	Y32	Z32	X33	Y33	Z33	

89	27.802000000000	907.480615057454	1004.583403580227	454.061578153880	1062.838335977659	1433.296597885097	276.357621039857	1177.673652699596	1367.276553060310	430.800305344506	1101.923187852437	1437.006643261402	610.398143918064	1052.604649691382	1492.849902630248	433.685295539152	1134.677349476551	936.816630965605	564.051295404759	1117.959444062944	960.818540043558	291.909939497146	1171.205354774851	731.838757307142	547.936060706433	1088.956077663029	624.681283379299	614.859153498667	1170.882570530572	562.277736374617	544.578788449359	1155.514733829961	451.569814658841	566.649905337655	1184.243797978350	760.841380861505	316.892904857289	1104.188668072046	635.046189758195	265.825798829255	1201.418142885180	567.796777830241	323.964508064777	1210.121054897133	499.171601438299	334.887690033560	1189.606490018748	424.447082710908	331.221294880692	1108.098866023471	300.793640685572	290.098209416465	1173.824998577772	197.336587108198	361.144640225486	1069.561353016009	390.160924549954	569.667933171699	942.450432468011	369.062531339862	628.721391809040	914.226368385812	263.026324174293	578.966892373301	706.293568394760	228.363698953045	547.435971703561	866.672445608666	149.362038297740	590.694922127283	754.965803625010	157.176384447801	618.063451832801	916.052844489205	32.722231962831	608.864724641170	1060.326219905861	38.244833092337	416.710414579587	1128.438781786816	36.211110433362	330.644809943517	1212.200462664107	98.029238693347	351.721094331487	1338.829811372455	48.835914837196	315.397150226323	962.184178481309	1093.377858221480	175.633165772183	954.966385022690	834.560936593141	179.467396925043	1158.752367355982	1093.919076791974	726.863145795134	1392.829269515459	1164.332024187070	675.923710824765	
90	27.813500000000	906.409966392960	1005.145785395811	451.222953081463	1063.583505918895	1434.246102892520	274.365256078414	1177.154781127504	1368.237562112797	429.734206404353	1099.866318638646	1437.646902531853	608.867407064600	1052.159815058130	1493.772499211141	431.771732130048	1133.708448435620	937.844571262071	562.139152037778	1117.665570546268	961.740832364930	289.998938372699	1175.752599265709	735.264087000703	546.371348618822	1096.499081853557	626.507007599731	613.506989629390	1180.267256638064	565.741158022788	543.356552720790	1166.911959381847	454.105963501623	565.539517413084	1181.833558338797	759.770426713730	314.186074117406	1099.929552683604	635.078539810917	264.210752020893	1196.267609180125	566.777802024017	322.352062727087	1204.018246951861	498.298008855158	333.592370078959	1183.063909849821	423.793350993127	330.120175991948	1100.690321085287	300.618180511807	289.212746740132	1165.517546204990	196.897969444761	360.659515186379	1080.074413105805	392.679641071562	568.376236190890	952.175921132314	374.551639742935	627.222323623950	921.927340451211	268.959738858667	577.897313828792	713.937063989819	239.942856072640	545.887845217048	871.634913753945	155.741055151184	589.757323849710	760.115964598167	167.305677346603	616.989520009733	917.312806055554	35.084862522147	608.907331106626	1051.016904722969	38.224361190823	416.644169927168	1119.124962647792	36.103076626546	330.607850188298	1203.001904323658	97.842615070166	351.653161322255	1329.608299694287	48.372030265435	315.355391806313	972.585296330454	1091.669079607974	170.137888781328	977.033437050961	832.523585920431	172.403842968180	1146.104511495125	1092.359104594643	725.038735412117	1385.459348630868	1146.229809268554	677.065047253783	
91	27.825000000000	905.272602436391	1005.727911423993	448.549582744653	1064.211731126097	1435.152258656672	272.485984195620	1176.512759353898	1369.168578873813	428.776432073559	1097.707609480651	1438.264970337712	607.436421205689	1051.608763943060	1494.680044957699	429.957551210862	1132.632688836762	938.903925546957	560.379259622305	1117.241456571178	962.628561243280	288.218604669862	1179.934534033965	738.915209801144	544.760464033661	1103.744444601427	628.687574360825	612.175883488242	1189.181804803858	569.644846760621	542.056118228055	1178.051747307856	457.196352553119	564.354683218642	1179.196247525040	758.777234691977	311.968137456078	1095.666864764198	635.210117115990	262.691953307192	1190.956625042143	565.822995947597	320.992081391964	1197.727180826881	497.448585243122	332.442397061975	1176.354953114422	423.196580159641	329.119394025007	1093.164698167670	300.485330226500	288.361233712438	1157.158107969463	196.507440707817	360.182938855623	1090.631366858788	395.546935526635	567.065240294303	962.130548378807	379.659934790615	625.677127844412	930.447182501853	274.393916751428	576.674873852311	722.533753892775	249.376766319935	544.203293050858	878.092542403468	161.501525769531	588.438218787266	766.886002201560	175.898451004831	615.765750536567	921.143835526104	38.098915441579	608.701430853431	1041.721605470887	38.233761211796	416.557652918411	1109.830756493133	36.017802032230	330.558548318095	1193.827181439028	97.665376960279	351.574285741963	1320.404064511016	47.896677897349	315.323403976065	983.600397066966	1090.182093458369	164.739860236271	999.652579398209	831.252560557875	165.438991172734	1133.539439670843	1091.204664913699	723.153301508739	1377.264143467817	1126.815733819131	678.379784917260	
92	27.836500000000	904.105274243423	1006.363989816410	446.034996898738	1064.716255901579	1436.051911109943	270.727668004373	1175.764838564731	1370.089400931714	427.907713072726	1095.501026349178	1438.892747228917	606.089044069896	1050.962987801267	1495.592371820516	428.243373311874	1131.457910976757	940.025330703270	558.749932113530	1116.713069680143	963.510217655726	286.549787735312	1183.718053018026	742.785179217019	543.054445942681	1110.681664635894	631.202348604733	610.862352888796	1197.612717737050	573.959887922872	540.680272708928	1188.906547252258	460.812385269461	563.136093643615	1176.394391548094	757.884721895585	310.196553845315	1091.359735410109	635.436994134297	261.291100938472	1185.480994335688	564.929264775961	319.848387957858	1191.252884272152	496.637723035679	331.443658341106	1169.485287157201	422.669997703373	328.221217126094	1085.514908268147	300.412861663697	287.559549307047	1148.743653130107	196.175528903899	359.719109433303	1101.210526852560	398.735663028379	565.781389381485	972.286415260845	384.274778377624	624.129702206840	939.792759487334	279.184142937653	575.357025796189	732.026232547125	256.496301494874	542.461101332666	886.097619818319	166.415552594530	586.814248524713	775.252367860890	182.703084560485	614.437859875880	927.635264422465	41.490920272919	608.241230886845	1032.442630547648	38.271942734766	416.450040657322	1100.557530839316	35.959015007745	330.494415818108	1184.669633160947	97.507288814462	351.480692069850	1311.211558010164	47.440561221280	315.290629656070	995.229177178597	1089.016618292445	159.479849043154	1022.715098612017	830.843595794036	158.633162332015	1121.188679223145	1090.476542243503	721.210808352949	1368.039750491703	1106.258218525104	679.871552479002	
93	27.848000000000	902.936314369195	1007.071241160649	443.668330165159	1065.096066323913	1436.971166453298	269.089520392743	1174.927091638824	1371.012996316806	427.108031297351	1093.287142310038	1439.549858957479	604.807870404412	1050.234289156040	1496.518598080081	426.624564732036	1130.193091240344	941.228365529492	557.240608316165	1116.109243707015	964.400759520000	284.985067926487	1187.092705849199	746.857354788973	541.231976436412	1117.308051036998	634.017617594125	609.568409973841	1205.562025757032	578.640973621232	539.240441239950	1199.454475079938	464.909855795262	561.908188139818	1173.482931540443	757.088423099543	308.811367267921	1086.963147454814	635.745188606276	260.023555040246	1179.833881854709	564.085239490405	318.882294622124	1184.597223922978	495.872269657327	330.594678135446	1162.458054353489	422.218278348515	327.425488153159	1077.735451612325	300.408233620107	286.820753480880	1140.269548553955	195.906133604120	359.274342378288	1111.792680401610	402.204274615050	564.555127046964	982.624010469847	388.296514713613	622.619517485849	949.955876820664	283.212834703921	573.997222472015	742.377383697083	261.230904034031	540.737515317981	895.668875821779	170.311065467212	584.992881979121	785.165197618431	187.557291040224	613.056530252150	936.773639144070	44.932411056001	607.546618766232	1023.177082912643	38.335654008324	416.324717998753	1091.302380710163	35.925939703411	330.417278253832	1175.520980118428	97.372630242850	351.373127503745	1302.024131178308	47.022998741466	315.251359334280	1007.429845327621	1088.266220476248	154.396406708847	1046.108607105615	831.371124919194	152.047787017586	1109.167919836590	1090.166657907168	719.215198034126	1357.585614188389	1084.763552713520	681.538886252720	
94	27.859500000000	901.782211003671	1007.848836358048	441.437350116737	1065.358383964203	1437.921776429753	267.563873755997	1174.015004109291	1371.942323974958	426.359713781241	1091.092756549662	1440.240990303059	603.577094857462	1049.435168914030	1497.456064411266	425.093267312722	1128.849591791912	942.518631911999	555.851455974259	1115.456243125801	965.300282154591	283.526729193809	1190.064108060196	751.102696254421	539.300101854476	1123.624251348889	637.087658037989	608.303181541462	1213.037435719785	583.626903971900	537.753679382561	1209.673089338390	469.430580080036	560.682970776846	1170.504013341650	756.366086061510	307.745839431923	1082.443005516572	636.115107235947	258.894286795946	1174.013919327561	563.276238976467	318.057757447832	1177.765918743974	495.152307765542	329.886067580035	1155.280456089913	421.837793200003	326.727565979049	1069.827195030770	300.469686637488	286.152763967760	1131.733967386844	195.696927727582	358.854574283092	1122.355655762370	405.896056371901	563.401899407721	993.124932351463	391.643935510950	621.180474633106	960.911143792209	286.394196952127	572.643439376077	753.565476854363	263.590079419925	539.103341979849	906.792174990218	173.079892783003	583.099309717409	796.556058688681	190.384307814912	611.676055243065	948.461598656801	48.096116285844	606.658405321209	1013.919072619556	38.420338515915	416.187733365598	1082.060452586063	35.914779130257	330.331649048942	1166.373595642727	97.261237341482	351.255526151153	1292.836229409133	46.652957971688	315.203947407663	1020.118251132872	1088.008945900908	149.523906156482	1069.717845217587	832.885631402757	145.744852307835	1097.572171770400	1090.236237442308	717.171075373533	1345.714831276955	1062.573680470907	683.373953848615	
